<svg version="1.1" id="Layer_1" xmlns="http://www.w3.org/2000/svg" xmlns:xlink="http://www.w3.org/1999/xlink" x="0px" y="0px"
	 width="100%" viewBox="0 0 2134 2134" enable-background="new 0 0 2134 2134" xml:space="preserve">
<path fill="#1A48AD" opacity="1.000000" stroke="none" 
	d="
M2.000000,2034.000000 
	C2.000000,1391.938232 2.000000,749.876343 2.774362,106.884949 
	C4.230310,104.936607 5.298275,104.000999 5.537975,102.887154 
	C16.616287,51.407646 47.559803,18.980915 98.506340,5.575828 
	C101.135811,4.883962 103.508018,3.214381 106.000000,2.000000 
	C748.061829,2.000000 1390.123657,2.000000 2033.347534,2.721322 
	C2037.052612,4.134613 2039.582031,4.882617 2042.140991,5.510248 
	C2087.794922,16.708099 2117.800293,44.773060 2132.520020,89.322906 
	C2133.694336,92.877129 2134.840576,96.440765 2136.000000,100.000015 
	C2136.000000,746.728516 2136.000000,1393.457031 2135.294678,2041.350342 
	C2124.708008,2082.102539 2101.205078,2110.388428 2063.842041,2126.756104 
	C2054.923096,2130.663330 2045.299438,2132.961670 2036.000000,2136.000000 
	C1392.604858,2136.000000 749.209717,2136.000000 104.496185,2135.367188 
	C85.653641,2131.408691 69.420937,2124.959473 55.001057,2114.362549 
	C29.059551,2095.298828 12.159774,2070.311768 5.866832,2038.502075 
	C5.406826,2036.176880 5.423612,2033.675537 2.000000,2034.000000 
M1359.109619,1233.948120 
	C1268.147583,1177.955566 1177.185669,1121.963013 1085.239868,1065.364868 
	C1223.753174,988.404602 1360.858765,912.226318 1497.927856,836.068359 
	C1497.927856,658.657227 1497.927856,481.798065 1497.927856,303.214417 
	C1212.590698,475.493805 928.315491,647.131958 642.763245,819.541199 
	C678.665283,841.660034 712.931946,862.786804 747.214355,883.888123 
	C781.260498,904.843933 815.324341,925.770996 849.376770,946.716492 
	C883.713196,967.836731 918.087219,988.896179 952.367126,1010.107727 
	C986.436401,1031.188965 1020.779114,1051.842896 1055.651733,1073.978516 
	C1050.969360,1076.680298 1047.867554,1078.529175 1044.712402,1080.282104 
	C913.683411,1153.081421 782.673706,1225.915649 651.542969,1298.531128 
	C645.213257,1302.036255 642.819092,1305.919556 642.828064,1313.232544 
	C643.037109,1483.563232 642.990356,1653.894287 642.990845,1824.225220 
	C642.990845,1827.488892 642.990784,1830.752563 642.990784,1833.891113 
	C644.681213,1834.098999 645.461792,1834.450928 645.954956,1834.211182 
	C648.044922,1833.195801 650.089722,1832.071167 652.079712,1830.868530 
	C933.178711,1660.977051 1214.271606,1491.075439 1495.351685,1321.152832 
	C1495.567749,1321.022461 1495.626831,1320.578735 1495.692139,1320.267212 
	C1495.759888,1319.944336 1495.745728,1319.604126 1495.841797,1318.129761 
	C1450.991577,1290.498535 1405.680298,1262.583374 1359.109619,1233.948120 
z"/>
<path fill="#FCFDFE" opacity="1.000000" stroke="none" 
	d="
M105.062683,2.000000 
	C103.508018,3.214381 101.135811,4.883962 98.506340,5.575828 
	C47.559803,18.980915 16.616287,51.407646 5.537975,102.887154 
	C5.298275,104.000999 4.230310,104.936607 2.774362,105.977676 
	C2.000000,71.479805 2.000000,36.959610 2.000000,2.000000 
	C36.040527,2.000000 70.082947,2.000000 105.062683,2.000000 
z"/>
<path fill="#FCFCFE" opacity="1.000000" stroke="none" 
	d="
M2.000000,2034.937256 
	C5.423612,2033.675537 5.406826,2036.176880 5.866832,2038.502075 
	C12.159774,2070.311768 29.059551,2095.298828 55.001057,2114.362549 
	C69.420937,2124.959473 85.653641,2131.408691 103.588913,2135.367188 
	C70.146492,2136.000000 36.292980,2136.000000 2.000000,2136.000000 
	C2.000000,2102.626221 2.000000,2069.250488 2.000000,2034.937256 
z"/>
<path fill="#FCFCFE" opacity="1.000000" stroke="none" 
	d="
M2136.000000,99.062698 
	C2134.840576,96.440765 2133.694336,92.877129 2132.520020,89.322906 
	C2117.800293,44.773060 2087.794922,16.708099 2042.140991,5.510248 
	C2039.582031,4.882617 2037.052612,4.134613 2034.254761,2.721322 
	C2067.850586,2.000000 2101.701172,2.000000 2136.000000,2.000000 
	C2136.000000,34.040394 2136.000000,66.082878 2136.000000,99.062698 
z"/>
<path fill="#FCFCFE" opacity="1.000000" stroke="none" 
	d="
M2036.937256,2136.000000 
	C2045.299438,2132.961670 2054.923096,2130.663330 2063.842041,2126.756104 
	C2101.205078,2110.388428 2124.708008,2082.102539 2135.294678,2042.257568 
	C2136.000000,2073.191406 2136.000000,2104.382568 2136.000000,2136.000000 
	C2103.292725,2136.000000 2070.583740,2136.000000 2036.937256,2136.000000 
z"/>
<path fill="#FFFFFF" opacity="1.000000" stroke="none" 
	d="
M1359.739380,1234.308105 
	C1405.680298,1262.583374 1450.991577,1290.498535 1495.841797,1318.129761 
	C1495.745728,1319.604126 1495.759888,1319.944336 1495.692139,1320.267212 
	C1495.626831,1320.578735 1495.567749,1321.022461 1495.351685,1321.152832 
	C1214.271606,1491.075439 933.178711,1660.977051 652.079712,1830.868530 
	C650.089722,1832.071167 648.044922,1833.195801 645.954956,1834.211182 
	C645.461792,1834.450928 644.681213,1834.098999 642.990784,1833.891113 
	C642.990784,1830.752563 642.990845,1827.488892 642.990845,1824.225220 
	C642.990356,1653.894287 643.037109,1483.563232 642.828064,1313.232544 
	C642.819092,1305.919556 645.213257,1302.036255 651.542969,1298.531128 
	C782.673706,1225.915649 913.683411,1153.081421 1044.712402,1080.282104 
	C1047.867554,1078.529175 1050.969360,1076.680298 1055.651733,1073.978516 
	C1020.779114,1051.842896 986.436401,1031.188965 952.367126,1010.107727 
	C918.087219,988.896179 883.713196,967.836731 849.376770,946.716492 
	C815.324341,925.770996 781.260498,904.843933 747.214355,883.888123 
	C712.931946,862.786804 678.665283,841.660034 642.763245,819.541199 
	C928.315491,647.131958 1212.590698,475.493805 1497.927856,303.214417 
	C1497.927856,481.798065 1497.927856,658.657227 1497.927856,836.068359 
	C1360.858765,912.226318 1223.753174,988.404602 1085.239868,1065.364868 
	C1177.185669,1121.963013 1268.147583,1177.955566 1359.739380,1234.308105 
z"/>
</svg>