<svg viewBox="0 0 34 34" fill="none" xmlns="http://www.w3.org/2000/svg" xmlns:xlink="http://www.w3.org/1999/xlink" x="0" y="0"><g id="Group 115">
<rect id="Rectangle 45" x="0" y="0" width="34" height="34" rx="5" fill="#2563EB" fill-opacity="0.1"/>
<g id="ant-design:mail-outlined">
<path id="Vector_14" d="M25.12,10.969h-16.24c-0.35,0 -0.63,0.265 -0.63,0.593v11.876c0,0.328 0.28,0.593 0.63,0.593h16.24c0.35,0 0.63,-0.265 0.63,-0.593v-11.876c0,-0.328 -0.28,-0.593 -0.63,-0.593zM24.34,13.025v9.67h-14.68v-9.67l-0.54,-0.399l0.76,-0.937l0.84,0.618h12.56l0.84,-0.618l0.76,0.937zM23.28,12.305l-6.28,4.638l-6.28,-4.638l-0.84,-0.618l-0.76,0.937l0.53,0.399l6.68,4.928c0.19,0.141 0.42,0.218 0.67,0.218c0.24,0 0.48,-0.077 0.67,-0.218l6.67,-4.926l0.54,-0.399l-0.76,-0.937z" fill="#2563EB"/>
</g>
</g></svg>