<svg viewBox="0 0 34 34" fill="none" xmlns="http://www.w3.org/2000/svg" xmlns:xlink="http://www.w3.org/1999/xlink" x="0" y="0"><g id="Group 113">
<rect id="Rectangle 44" x="0" y="0" width="34" height="34" rx="5" fill="#2563EB"/>
<g id="solar:copy-outline">
<path id="Vector_15" fill-rule="evenodd" clip-rule="evenodd" d="M19.5,8.99h-3.38c-1.53,0 -2.74,0 -3.69,0.121c-0.98,0.125 -1.77,0.388 -2.4,0.98c-0.62,0.593 -0.9,1.344 -1.03,2.272c-0.12,0.902 -0.12,2.054 -0.12,3.509v4.795c-0.01,0.707 0.26,1.391 0.74,1.929c0.49,0.538 1.16,0.894 1.89,1.004c0.12,0.605 0.34,1.121 0.78,1.541c0.5,0.477 1.13,0.681 1.88,0.778c0.73,0.091 1.64,0.091 2.78,0.091h2.6c1.14,0 2.05,0 2.78,-0.091c0.75,-0.097 1.38,-0.301 1.88,-0.778c0.5,-0.476 0.72,-1.077 0.82,-1.789c0.09,-0.686 0.09,-1.56 0.09,-2.642v-4.045c0,-1.082 0,-1.956 -0.09,-2.642c-0.1,-0.713 -0.32,-1.313 -0.82,-1.789c-0.44,-0.42 -0.99,-0.63 -1.62,-0.738c-0.12,-0.699 -0.49,-1.335 -1.06,-1.795c-0.57,-0.459 -1.29,-0.712 -2.03,-0.711zM21.27,11.381c-0.12,-0.351 -0.36,-0.656 -0.68,-0.872c-0.32,-0.216 -0.7,-0.332 -1.09,-0.332h-3.33c-1.59,0 -2.72,0.002 -3.58,0.111c-0.84,0.107 -1.32,0.308 -1.67,0.643c-0.35,0.335 -0.57,0.794 -0.68,1.589c-0.11,0.815 -0.11,1.887 -0.11,3.397v4.75c-0.01,0.371 0.12,0.734 0.34,1.036c0.23,0.302 0.55,0.53 0.92,0.65c-0.02,-0.483 -0.01,-1.029 -0.01,-1.643v-4.045c0,-1.082 0,-1.956 0.09,-2.642c0.1,-0.713 0.32,-1.313 0.82,-1.789c0.5,-0.477 1.13,-0.681 1.88,-0.777c0.73,-0.092 1.64,-0.092 2.78,-0.092h2.6c0.64,0 1.22,0 1.72,0.016zM13.17,13.075c0.23,-0.22 0.56,-0.362 1.17,-0.441c0.63,-0.08 1.46,-0.081 2.66,-0.081h2.5c1.19,0 2.03,0.001 2.66,0.081c0.61,0.079 0.93,0.222 1.16,0.441c0.24,0.219 0.39,0.526 0.47,1.108c0.08,0.597 0.08,1.39 0.08,2.526v3.958c0,1.136 0,1.929 -0.08,2.527c-0.08,0.582 -0.24,0.889 -0.47,1.108c-0.23,0.219 -0.55,0.362 -1.16,0.44c-0.63,0.08 -1.47,0.082 -2.66,0.082h-2.5c-1.2,0 -2.03,-0.002 -2.66,-0.082c-0.61,-0.078 -0.94,-0.222 -1.17,-0.44c-0.23,-0.219 -0.38,-0.526 -0.46,-1.108c-0.08,-0.598 -0.09,-1.391 -0.09,-2.527v-3.958c0,-1.136 0.01,-1.929 0.09,-2.527c0.08,-0.581 0.23,-0.888 0.46,-1.107z" fill="white"/>
</g>
</g></svg>