<svg viewBox="0 0 34 34" fill="none" xmlns="http://www.w3.org/2000/svg" xmlns:xlink="http://www.w3.org/1999/xlink" x="0" y="0"><g id="Group 116">
<rect id="Rectangle 43" x="0" y="0" width="34" height="34" rx="5" fill="#2563EB" fill-opacity="0.1"/>
<g id="boxicons:phone">
<path id="Vector_13" d="M22.06,25.417h0.29c0.39,-0.016 0.75,-0.206 0.98,-0.507l1.78,-2.446c0.19,-0.262 0.27,-0.586 0.2,-0.903c-0.07,-0.316 -0.26,-0.586 -0.53,-0.768l-3.87,-2.446c-0.21,-0.13 -0.45,-0.199 -0.69,-0.198c-0.34,0 -0.68,0.127 -0.92,0.38l-1.22,1.259c-0.58,-0.341 -1.35,-0.847 -1.97,-1.441c-0.6,-0.57 -1.14,-1.298 -1.52,-1.868l1.33,-1.164c0.45,-0.396 0.53,-1.045 0.19,-1.528l-2.58,-3.673c-0.18,-0.262 -0.47,-0.452 -0.8,-0.507c-0.17,-0.031 -0.33,-0.03 -0.5,0.003c-0.16,0.032 -0.31,0.096 -0.45,0.187l-2.57,1.694c-0.33,0.214 -0.52,0.554 -0.53,0.926c-0.03,0.547 -0.14,5.463 3.9,9.295c3.62,3.443 8.17,3.713 9.48,3.713zM12.73,15.956c-0.13,0.119 -0.17,0.309 -0.09,0.467c0.04,0.072 0.96,1.774 2.29,3.04c1.33,1.267 3.12,2.138 3.2,2.177c0.16,0.08 0.36,0.048 0.49,-0.087l1.66,-1.702l3.21,2.035l-1.41,1.947c-0.97,0 -5.11,-0.19 -8.33,-3.246c-3.22,-3.055 -3.42,-6.998 -3.42,-7.908l2.05,-1.346l2.15,3.056l-1.8,1.575z" fill="#2563EB"/>
</g>
</g></svg>