<svg viewBox="0 0 34 34" fill="none" xmlns="http://www.w3.org/2000/svg" xmlns:xlink="http://www.w3.org/1999/xlink" x="0" y="0"><g id="Group 114">
<rect id="Rectangle 46" x="0" y="0" width="34" height="34" rx="5" fill="#25D366" fill-opacity="0.12"/>
<g id="ic:twotone-whatsapp">
<path id="Vector_16" d="M22.08,11.887c-0.72,-0.733 -1.59,-1.314 -2.54,-1.71c-0.95,-0.395 -1.98,-0.597 -3.01,-0.594c-4.32,0 -7.84,3.523 -7.84,7.846c0,1.385 0.36,2.731 1.04,3.919l-1.11,4.069l4.16,-1.093c1.15,0.626 2.44,0.958 3.75,0.958c4.32,0 7.85,-3.523 7.85,-7.845c0,-2.098 -0.82,-4.069 -2.3,-5.55zM16.53,23.952c-1.17,0 -2.32,-0.317 -3.32,-0.91l-0.24,-0.143l-2.47,0.649l0.66,-2.406l-0.16,-0.246c-0.65,-1.039 -1,-2.241 -1,-3.467c0,-3.594 2.93,-6.524 6.52,-6.524c1.75,0 3.38,0.681 4.61,1.916c0.61,0.605 1.09,1.324 1.42,2.117c0.33,0.792 0.49,1.641 0.49,2.499c0.02,3.594 -2.91,6.515 -6.51,6.515zM20.11,19.075c-0.2,-0.095 -1.16,-0.57 -1.34,-0.641c-0.18,-0.063 -0.31,-0.095 -0.44,0.095c-0.14,0.198 -0.51,0.641 -0.62,0.768c-0.11,0.135 -0.23,0.151 -0.43,0.048c-0.19,-0.095 -0.83,-0.309 -1.57,-0.974c-0.59,-0.523 -0.98,-1.164 -1.09,-1.362c-0.11,-0.198 -0.02,-0.301 0.08,-0.404c0.09,-0.087 0.2,-0.229 0.3,-0.34c0.09,-0.111 0.13,-0.198 0.19,-0.325c0.07,-0.134 0.04,-0.245 -0.01,-0.34c-0.05,-0.095 -0.45,-1.061 -0.6,-1.457c-0.16,-0.38 -0.33,-0.332 -0.45,-0.34h-0.38c-0.13,0 -0.34,0.047 -0.52,0.245c-0.17,0.198 -0.68,0.673 -0.68,1.639c0,0.966 0.7,1.9 0.8,2.027c0.09,0.134 1.38,2.114 3.35,2.961c0.47,0.205 0.83,0.324 1.11,0.411c0.47,0.151 0.9,0.127 1.24,0.079c0.38,-0.055 1.16,-0.475 1.32,-0.934c0.17,-0.459 0.17,-0.847 0.11,-0.934c-0.05,-0.087 -0.17,-0.127 -0.37,-0.222z" fill="#25D366"/>
</g>
</g></svg>