<svg viewBox="0 0 21 21" fill="none" xmlns="http://www.w3.org/2000/svg" xmlns:xlink="http://www.w3.org/1999/xlink" x="0" y="0"><g id="Group_5">
<path id="Vector_51" d="M3.0754,17.925c-1.9692,-1.97 -3.0754,-4.64 -3.0754,-7.425c0,-2.785 1.1062,-5.455 3.0754,-7.425c1.9691,-1.969 4.6398,-3.075 7.4246,-3.075c2.7848,0 5.4555,1.106 7.4246,3.075c1.9692,1.97 3.0754,4.64 3.0754,7.425c0,2.785 -1.1062,5.455 -3.0754,7.425c-1.9691,1.969 -4.6398,3.075 -7.4246,3.075c-2.7848,0 -5.4555,-1.106 -7.4246,-3.075z" stroke="white" stroke-width="1.125" stroke-linejoin="round"/>
<path id="Vector_52" d="M7.318,3.075c-0.8439,1.97 -1.318,4.64 -1.318,7.425c0,2.785 0.4741,5.455 1.318,7.425c0.8439,1.969 1.9885,3.075 3.182,3.075c1.1935,0 2.3381,-1.106 3.182,-3.075c0.8439,-1.97 1.318,-4.64 1.318,-7.425c0,-2.785 -0.4741,-5.455 -1.318,-7.425c-0.8439,-1.969 -1.9885,-3.075 -3.182,-3.075c-1.1935,0 -2.3381,1.106 -3.182,3.075z" stroke="white" stroke-width="1.125" stroke-linejoin="round"/>
<path id="Vector_53" d="M0.75,14h19.5M0.75,7h19.5" stroke="white" stroke-width="1.125" stroke-linecap="round"/>
</g></svg>