<svg viewBox="0 0 20 20" fill="none" xmlns="http://www.w3.org/2000/svg" xmlns:xlink="http://www.w3.org/1999/xlink" x="0" y="0"><path id="Vector_62" d="M3,20c-0.55,0 -1.0207,-0.196 -1.412,-0.587c-0.3913,-0.391 -0.5873,-0.862 -0.588,-1.413v-11.275c-0.3,-0.183 -0.5417,-0.421 -0.725,-0.712c-0.1833,-0.291 -0.275,-0.629 -0.275,-1.013v-3c0,-0.55 0.196,-1.021 0.588,-1.412c0.392,-0.391 0.8627,-0.587 1.412,-0.588h16c0.55,0 1.021,0.196 1.413,0.588c0.392,0.392 0.5877,0.863 0.587,1.412v3c0,0.383 -0.0917,0.721 -0.275,1.013c-0.1833,0.292 -0.425,0.529 -0.725,0.711v11.276c0,0.55 -0.1957,1.021 -0.587,1.413c-0.3913,0.392 -0.8623,0.588 -1.413,0.587zM3,7v11h14v-11zM2,5h16v-3h-16zM8,12h4c0.2833,0 0.521,-0.096 0.713,-0.288c0.192,-0.192 0.2877,-0.429 0.287,-0.712c-0.0007,-0.283 -0.0967,-0.52 -0.288,-0.712c-0.1913,-0.192 -0.4287,-0.288 -0.712,-0.288h-4c-0.2833,0 -0.5207,0.096 -0.712,0.288c-0.1913,0.192 -0.2873,0.429 -0.288,0.712c-0.0007,0.283 0.0953,0.52 0.288,0.713c0.1927,0.193 0.43,0.288 0.712,0.287z" fill="currentColor"/></svg>