<svg viewBox="0 0 24 24" fill="none" xmlns="http://www.w3.org/2000/svg" xmlns:xlink="http://www.w3.org/1999/xlink" x="0" y="0"><g id="eos-icons:admin-outlined">
<path id="Vector_63" d="M12,23c-5.557,-1.235 -10,-6.478 -10,-12v-6l10,-4l10,4v6c0,5.524 -4.443,10.765 -10,12zM4,6v5c0.0571,2.312 0.8704,4.542 2.3152,6.348c1.4448,1.806 3.4416,3.089 5.6848,3.652c2.2432,-0.563 4.24,-1.846 5.6848,-3.652c1.4448,-1.806 2.2581,-4.036 2.3152,-6.348v-5l-8,-3z" fill="currentColor"/>
<path id="Vector_64" d="M12,11c1.3807,0 2.5,-1.119 2.5,-2.5c0,-1.381 -1.1193,-2.5 -2.5,-2.5c-1.3807,0 -2.5,1.119 -2.5,2.5c0,1.381 1.1193,2.5 2.5,2.5z" fill="currentColor"/>
<path id="Vector_65" d="M7,15c0.4927,0.898 1.2154,1.65 2.094,2.177c0.8786,0.527 1.8815,0.811 2.906,0.823c1.0245,-0.012 2.0274,-0.296 2.906,-0.823c0.8786,-0.527 1.6013,-1.279 2.094,-2.177c-0.025,-1.896 -3.342,-3 -5,-3c-1.667,0 -4.975,1.104 -5,3z" fill="currentColor"/>
</g></svg>