<svg viewBox="0 0 19.6489 20.0027" fill="none" xmlns="http://www.w3.org/2000/svg" xmlns:xlink="http://www.w3.org/1999/xlink" x="0" y="0"><path id="Vector_66" d="M18.0435,10.6613c-0.1603,-0.182 -0.2487,-0.417 -0.2487,-0.66c0,-0.243 0.0884,-0.477 0.2487,-0.66l1.28,-1.44c0.141,-0.157 0.2286,-0.355 0.2502,-0.565c0.0215,-0.211 -0.024,-0.422 -0.1302,-0.605l-2,-3.46c-0.1051,-0.182 -0.2651,-0.327 -0.4573,-0.413c-0.1921,-0.086 -0.4065,-0.11 -0.6127,-0.067l-1.88,0.38c-0.2392,0.049 -0.4883,0.01 -0.7001,-0.112c-0.2119,-0.122 -0.3719,-0.316 -0.4499,-0.548l-0.61,-1.83c-0.0671,-0.199 -0.1949,-0.371 -0.3654,-0.493c-0.1704,-0.122 -0.375,-0.188 -0.5846,-0.187h-4c-0.2181,-0.011 -0.4339,0.049 -0.6144,0.172c-0.1806,0.123 -0.316,0.301 -0.3856,0.508l-0.56,1.83c-0.078,0.232 -0.238,0.426 -0.4499,0.548c-0.2119,0.122 -0.4609,0.161 -0.7001,0.112l-1.93,-0.38c-0.1955,-0.028 -0.3947,0.003 -0.5727,0.089c-0.1779,0.085 -0.3266,0.221 -0.4273,0.391l-2,3.46c-0.1088,0.181 -0.1578,0.391 -0.1398,0.601c0.0179,0.21 0.1019,0.409 0.2398,0.569l1.27,1.44c0.1603,0.183 0.2487,0.417 0.2487,0.66c0,0.243 -0.0884,0.478 -0.2487,0.66l-1.27,1.44c-0.1379,0.16 -0.2219,0.359 -0.2398,0.569c-0.018,0.21 0.031,0.42 0.1398,0.601l2,3.46c0.1051,0.182 0.2651,0.327 0.4572,0.413c0.1922,0.087 0.4066,0.11 0.6128,0.067l1.88,-0.38c0.2392,-0.049 0.4882,-0.01 0.7001,0.112c0.2119,0.122 0.3719,0.317 0.4499,0.548l0.61,1.83c0.0696,0.207 0.205,0.386 0.3856,0.508c0.1805,0.123 0.3963,0.183 0.6144,0.172h4c0.2096,0.001 0.4142,-0.065 0.5846,-0.187c0.1705,-0.122 0.2983,-0.294 0.3654,-0.493l0.61,-1.83c0.078,-0.231 0.238,-0.426 0.4499,-0.548c0.2118,-0.122 0.4609,-0.161 0.7001,-0.112l1.88,0.38c0.2062,0.043 0.4206,0.02 0.6127,-0.067c0.1922,-0.086 0.3522,-0.231 0.4573,-0.413l2,-3.46c0.1062,-0.183 0.1517,-0.394 0.1302,-0.604c-0.0216,-0.211 -0.1092,-0.409 -0.2502,-0.566zM16.5535,12.0013l0.8,0.9l-1.28,2.22l-1.18,-0.24c-0.7202,-0.147 -1.4694,-0.025 -2.1054,0.344c-0.636,0.368 -1.1145,0.958 -1.3446,1.656l-0.38,1.12h-2.56l-0.36,-1.14c-0.2301,-0.698 -0.7086,-1.287 -1.3446,-1.656c-0.636,-0.369 -1.3852,-0.491 -2.1054,-0.344l-1.18,0.24l-1.3,-2.21l0.8,-0.9c0.492,-0.55 0.7639,-1.262 0.7639,-2c0,-0.738 -0.2719,-1.45 -0.7639,-2l-0.8,-0.9l1.28,-2.2l1.18,0.24c0.7202,0.147 1.4694,0.025 2.1054,-0.344c0.636,-0.368 1.1145,-0.958 1.3446,-1.656l0.38,-1.13h2.56l0.38,1.14c0.2301,0.698 0.7086,1.288 1.3446,1.656c0.636,0.369 1.3852,0.491 2.1054,0.344l1.18,-0.24l1.28,2.22l-0.8,0.9c-0.4864,0.549 -0.755,1.257 -0.755,1.99c0,0.733 0.2686,1.441 0.755,1.99zM9.7835,6.0013c-0.7911,0 -1.5645,0.235 -2.2223,0.674c-0.6578,0.44 -1.1705,1.064 -1.4732,1.795c-0.3028,0.731 -0.382,1.535 -0.2276,2.311c0.1543,0.776 0.5353,1.489 1.0947,2.048c0.5594,0.56 1.2721,0.941 2.048,1.095c0.776,0.154 1.5802,0.075 2.3111,-0.227c0.7309,-0.303 1.3556,-0.816 1.7952,-1.474c0.4395,-0.657 0.6741,-1.431 0.6741,-2.222c0,-1.061 -0.4214,-2.078 -1.1716,-2.828c-0.7501,-0.751 -1.7675,-1.172 -2.8284,-1.172zM9.7835,12.0013c-0.3956,0 -0.7822,-0.117 -1.1111,-0.337c-0.3289,-0.22 -0.5853,-0.532 -0.7367,-0.898c-0.1513,-0.365 -0.1909,-0.767 -0.1138,-1.155c0.0772,-0.388 0.2677,-0.744 0.5474,-1.024c0.2797,-0.28 0.6361,-0.47 1.024,-0.548c0.388,-0.077 0.7901,-0.037 1.1556,0.114c0.3654,0.152 0.6778,0.408 0.8975,0.737c0.2198,0.329 0.3371,0.715 0.3371,1.111c0,0.53 -0.2107,1.039 -0.5858,1.414c-0.3751,0.375 -0.8838,0.586 -1.4142,0.586z" fill="currentColor"/></svg>