<svg viewBox="0 0 20 20" fill="none" xmlns="http://www.w3.org/2000/svg" xmlns:xlink="http://www.w3.org/1999/xlink" x="0" y="0"><path id="Vector_56" d="M17,2h-2v-1c0,-0.265 -0.1054,-0.52 -0.2929,-0.707c-0.1875,-0.188 -0.4419,-0.293 -0.7071,-0.293c-0.2652,0 -0.5196,0.105 -0.7071,0.293c-0.1875,0.187 -0.2929,0.442 -0.2929,0.707v1h-6v-1c0,-0.265 -0.1054,-0.52 -0.2929,-0.707c-0.1875,-0.188 -0.4419,-0.293 -0.7071,-0.293c-0.2652,0 -0.5196,0.105 -0.7071,0.293c-0.1875,0.187 -0.2929,0.442 -0.2929,0.707v1h-2c-0.7956,0 -1.5587,0.316 -2.1213,0.879c-0.5626,0.562 -0.8787,1.325 -0.8787,2.121v12c0,0.796 0.3161,1.559 0.8787,2.121c0.5626,0.563 1.3257,0.879 2.1213,0.879h14c0.7956,0 1.5587,-0.316 2.1213,-0.879c0.5626,-0.562 0.8787,-1.325 0.8787,-2.121v-12c0,-0.796 -0.3161,-1.559 -0.8787,-2.121c-0.5626,-0.563 -1.3257,-0.879 -2.1213,-0.879zM18,17c0,0.265 -0.1054,0.52 -0.2929,0.707c-0.1875,0.188 -0.4419,0.293 -0.7071,0.293h-14c-0.2652,0 -0.5196,-0.105 -0.7071,-0.293c-0.1875,-0.187 -0.2929,-0.442 -0.2929,-0.707v-7h16zM18,8h-16v-3c0,-0.265 0.1054,-0.52 0.2929,-0.707c0.1875,-0.188 0.4419,-0.293 0.7071,-0.293h2v1c0,0.265 0.1054,0.52 0.2929,0.707c0.1875,0.188 0.4419,0.293 0.7071,0.293c0.2652,0 0.5196,-0.105 0.7071,-0.293c0.1875,-0.187 0.2929,-0.442 0.2929,-0.707v-1h6v1c0,0.265 0.1054,0.52 0.2929,0.707c0.1875,0.188 0.4419,0.293 0.7071,0.293c0.2652,0 0.5196,-0.105 0.7071,-0.293c0.1875,-0.187 0.2929,-0.442 0.2929,-0.707v-1h2c0.2652,0 0.5196,0.105 0.7071,0.293c0.1875,0.187 0.2929,0.442 0.2929,0.707z" fill="currentColor"/></svg>