<svg viewBox="0 0 17.5004 17.5004" fill="none" xmlns="http://www.w3.org/2000/svg" xmlns:xlink="http://www.w3.org/1999/xlink" x="0" y="0"><path id="Vector_57" d="M16.7504,16.7504l-4.05,-4.05M12.7004,12.7004c0.65,-0.65 1.1657,-1.422 1.5175,-2.271c0.3518,-0.849 0.5328,-1.76 0.5328,-2.679c0,-0.919 -0.181,-1.83 -0.5328,-2.679c-0.3518,-0.849 -0.8675,-1.621 -1.5175,-2.271c-0.6501,-0.65 -1.4218,-1.166 -2.2711,-1.517c-0.8493,-0.352 -1.7596,-0.533 -2.6789,-0.533c-0.9193,0 -1.8296,0.181 -2.679,0.533c-0.8493,0.351 -1.621,0.867 -2.271,1.517c-1.3129,1.313 -2.0504,3.093 -2.0504,4.95c0,1.857 0.7375,3.637 2.0504,4.95c1.3128,1.313 3.0934,2.05 4.95,2.05c1.8566,0 3.6371,-0.737 4.95,-2.05z" stroke="white" stroke-width="1.5" stroke-linecap="round" stroke-linejoin="round"/></svg>