<svg viewBox="0 0 16 20" fill="none" xmlns="http://www.w3.org/2000/svg" xmlns:xlink="http://www.w3.org/1999/xlink" x="0" y="0"><g id="Group_7">
<path id="Vector_60" d="M5,11h6M5,15h3M0,2v16c0,0.53 0.2107,1.039 0.5858,1.414c0.3751,0.375 0.8838,0.586 1.4142,0.586h12c0.5304,0 1.0391,-0.211 1.4142,-0.586c0.3751,-0.375 0.5858,-0.884 0.5858,-1.414v-11.658c0,-0.266 -0.0533,-0.53 -0.1567,-0.776c-0.1034,-0.245 -0.2548,-0.468 -0.4453,-0.654l-4.44,-4.342c-0.3736,-0.365 -0.8754,-0.57 -1.398,-0.57h-7.56c-0.5304,0 -1.0391,0.211 -1.4142,0.586c-0.3751,0.375 -0.5858,0.884 -0.5858,1.414z" stroke="white" stroke-width="1.5" stroke-linecap="round" stroke-linejoin="round"/>
<path id="Vector_61" d="M10,0v4c0,0.53 0.2107,1.039 0.5858,1.414c0.3751,0.375 0.8838,0.586 1.4142,0.586h4" stroke="white" stroke-width="1.5" stroke-linejoin="round"/>
</g></svg>