<svg viewBox="0 0 18 18" fill="none" xmlns="http://www.w3.org/2000/svg" xmlns:xlink="http://www.w3.org/1999/xlink" x="0" y="0"><g id="Group 84">
<rect id="Rectangle 26" x="0" y="0" width="18" height="18" rx="3" fill="white"/>
<g id="mi:add">
<path id="Vector_25" d="M9,4.5c0.149,0 0.292,0.059 0.398,0.165c0.105,0.105 0.164,0.248 0.164,0.397v3.376h3.376c0.149,0 0.292,0.059 0.397,0.164c0.106,0.106 0.165,0.249 0.165,0.398c0,0.149 -0.059,0.292 -0.165,0.398c-0.105,0.105 -0.248,0.164 -0.397,0.164h-3.376v3.376c0,0.149 -0.059,0.292 -0.164,0.397c-0.106,0.106 -0.249,0.165 -0.398,0.165c-0.149,0 -0.292,-0.059 -0.398,-0.165c-0.105,-0.105 -0.164,-0.248 -0.164,-0.397v-3.376h-3.376c-0.149,0 -0.292,-0.059 -0.397,-0.164c-0.106,-0.106 -0.165,-0.249 -0.165,-0.398c0,-0.149 0.059,-0.292 0.165,-0.398c0.105,-0.105 0.248,-0.164 0.397,-0.164h3.376v-3.376c0,-0.149 0.059,-0.292 0.164,-0.397c0.106,-0.106 0.249,-0.165 0.398,-0.165z" fill="currentColor"/>
</g>
</g></svg>