<svg viewBox="0 0 36 36" fill="none" xmlns="http://www.w3.org/2000/svg" xmlns:xlink="http://www.w3.org/1999/xlink" x="0" y="0"><defs><mask id="path-13-inside-2_165_994" fill="white">
<path d="M-0.0002,8c0,-4.4183 3.58,-8 8,-8h20c4.42,0 8,3.5817 8,8v20c0,4.4183 -3.58,8 -8,8h-20c-4.42,0 -8,-3.5817 -8,-8z"/>
</mask><clipPath id="clip3_165_994">
<rect width="20" height="20" fill="white" transform="translate(7.99980000000005, 8)"/>
</clipPath></defs><g id="Button - Notifications">
<mask id="path-13-inside-2_165_994" fill="white">
<path d="M1045.99 25.995C1045.99 21.5767 1049.57 17.995 1053.99 17.995H1073.99C1078.41 17.995 1081.99 21.5767 1081.99 25.995V45.995C1081.99 50.4133 1078.41 53.995 1073.99 53.995H1053.99C1049.57 53.995 1045.99 50.4133 1045.99 45.995V25.995Z"/>
</mask>
<path d="M-0.0002,8c0,-4.4183 3.58,-8 8,-8h20c4.42,0 8,3.5817 8,8v20c0,4.4183 -3.58,8 -8,8h-20c-4.42,0 -8,-3.5817 -8,-8z" fill="white"/>
<path d="M7.9998,0v1h20v-1v-1h-20zM35.9998,8h-1v20h1h1v-20zM27.9998,36v-1h-20v1v1h20zM-0.0002,28h1v-20h-1h-1v20zM7.9998,36v-1c-3.87,0 -7,-3.134 -7,-7h-1h-1c0,4.9706 4.03,9 9,9zM35.9998,28h-1c0,3.866 -3.13,7 -7,7v1v1c4.97,0 9,-4.0294 9,-9zM27.9998,0v1c3.87,0 7,3.134 7,7h1h1c0,-4.9706 -4.03,-9 -9,-9zM7.9998,0v-1c-4.97,0 -9,4.0294 -9,9h1h1c0,-3.866 3.13,-7 7,-7z" fill="#E2E8F0" mask="url(#path-13-inside-2_165_994)"/>
<g id="SVG_3" clip-path="url(#clip3_165_994)">
<path id="Vector_5" d="M16.5598,25.5c0.14,0.2533 0.35,0.4637 0.61,0.61c0.25,0.1463 0.54,0.2233 0.83,0.2233c0.29,0 0.58,-0.077 0.83,-0.2233c0.26,-0.1463 0.47,-0.3567 0.61,-0.61" stroke="#475569" stroke-width="1.66667" stroke-linecap="round" stroke-linejoin="round"/>
<path id="Vector_6" d="M10.7198,20.7717c-0.11,0.1193 -0.18,0.2677 -0.21,0.4271c-0.02,0.1593 0,0.3229 0.06,0.4707c0.07,0.1478 0.17,0.2734 0.31,0.3617c0.13,0.0883 0.29,0.1353 0.45,0.1355h13.34c0.16,0 0.32,-0.0469 0.45,-0.135c0.14,-0.0881 0.24,-0.2136 0.31,-0.3613c0.06,-0.1477 0.09,-0.3112 0.06,-0.4706c-0.03,-0.1594 -0.1,-0.3079 -0.21,-0.4273c-1.1,-1.1425 -2.28,-2.3567 -2.28,-6.1058c0,-1.3261 -0.53,-2.5979 -1.46,-3.5356c-0.94,-0.9377 -2.21,-1.4644 -3.54,-1.4644c-1.33,0 -2.6,0.5267 -3.54,1.4644c-0.93,0.9377 -1.46,2.2095 -1.46,3.5356c0,3.7491 -1.18,4.9633 -2.28,6.105z" stroke="#475569" stroke-width="1.66667" stroke-linecap="round" stroke-linejoin="round"/>
</g>
<rect id="Background" x="18.99980000000005" y="9" width="8" height="8" rx="4" fill="#EF4444"/>
</g></svg>