<svg viewBox="0 0 24.375 26" fill="none" xmlns="http://www.w3.org/2000/svg" xmlns:xlink="http://www.w3.org/1999/xlink" x="0" y="0"><path id="Vector_32" d="M21.125,12.606c0.508,0.347 0.961,0.741 1.358,1.181c0.398,0.44 0.741,0.923 1.029,1.447c0.287,0.525 0.499,1.079 0.634,1.663c0.136,0.584 0.212,1.181 0.229,1.791c0,1.007 -0.19,1.955 -0.571,2.843c-0.381,0.889 -0.906,1.663 -1.575,2.323c-0.668,0.661 -1.443,1.181 -2.323,1.562c-0.88,0.381 -1.828,0.576 -2.843,0.584c-0.771,0 -1.515,-0.114 -2.235,-0.343c-0.719,-0.228 -1.379,-0.558 -1.98,-0.99c-0.601,-0.432 -1.134,-0.948 -1.6,-1.549c-0.465,-0.601 -0.825,-1.265 -1.079,-1.993h-10.169v-19.5h3.25v-1.625h1.625v1.625h11.375v-1.625h1.625v1.625h3.25zM1.625,3.25v3.25h17.875v-3.25h-1.625v1.625h-1.625v-1.625h-11.375v1.625h-1.625v-1.625zM9.788,19.5c-0.025,-0.262 -0.038,-0.533 -0.038,-0.812c0,-1.008 0.19,-1.956 0.571,-2.844c0.381,-0.889 0.906,-1.663 1.575,-2.323c0.668,-0.661 1.443,-1.181 2.323,-1.562c0.88,-0.381 1.828,-0.576 2.844,-0.584c0.846,0 1.658,0.14 2.437,0.419v-3.669h-17.875v11.375zM17.063,24.375c0.787,0 1.523,-0.148 2.208,-0.444c0.686,-0.297 1.287,-0.703 1.803,-1.219c0.516,-0.516 0.923,-1.117 1.219,-1.803c0.296,-0.685 0.449,-1.426 0.457,-2.221c0,-0.788 -0.148,-1.524 -0.444,-2.209c-0.297,-0.686 -0.703,-1.287 -1.219,-1.803c-0.516,-0.516 -1.117,-0.923 -1.803,-1.219c-0.685,-0.296 -1.426,-0.449 -2.221,-0.457c-0.788,0 -1.524,0.148 -2.209,0.444c-0.686,0.297 -1.287,0.703 -1.803,1.219c-0.516,0.516 -0.923,1.117 -1.219,1.803c-0.296,0.685 -0.449,1.426 -0.457,2.222c0,0.787 0.148,1.523 0.444,2.208c0.297,0.686 0.703,1.287 1.219,1.803c0.516,0.516 1.117,0.923 1.803,1.219c0.685,0.296 1.426,0.449 2.222,0.457zM17.875,17.875h2.438v1.625h-4.063v-4.875h1.625z" fill="#7C5CFC"/></svg>