<svg viewBox="0 0 17.3344 21.6667" fill="none" xmlns="http://www.w3.org/2000/svg" xmlns:xlink="http://www.w3.org/1999/xlink" x="0" y="0"><g id="Group_4">
<path id="Vector_45" d="M9.382,21.6664h5.786c0.574,0 1.125,-0.228 1.532,-0.634c0.406,-0.407 0.634,-0.958 0.634,-1.532v-13c0.001,-0.344 -0.066,-0.684 -0.197,-1.001c-0.132,-0.317 -0.324,-0.605 -0.567,-0.848l-3.887,-3.887c-0.243,-0.243 -0.531,-0.436 -0.848,-0.567c-0.317,-0.131 -0.657,-0.198 -1.001,-0.197h-8.666c-0.575,0 -1.126,0.228 -1.532,0.634c-0.407,0.407 -0.635,0.958 -0.635,1.532v10.119" stroke="#E54649" stroke-width="2.16667" stroke-linecap="round" stroke-linejoin="round"/>
<path id="Vector_46" d="M10.834,0.0004v5.416c0,0.288 0.115,0.563 0.318,0.766c0.203,0.203 0.478,0.318 0.766,0.318h5.416M6.911,11.5074c0.431,-0.431 1.016,-0.673 1.626,-0.673c0.61,0 1.194,0.243 1.625,0.674c0.431,0.432 0.673,1.017 0.673,1.627c0,0.609 -0.243,1.194 -0.674,1.625l-5.437,5.43c-0.257,0.257 -0.575,0.446 -0.925,0.548l-3.106,0.907c-0.093,0.027 -0.192,0.028 -0.286,0.004c-0.094,-0.024 -0.18,-0.073 -0.248,-0.141c-0.069,-0.069 -0.118,-0.155 -0.142,-0.249c-0.024,-0.094 -0.022,-0.193 0.005,-0.286l0.905,-3.108c0.103,-0.349 0.291,-0.667 0.549,-0.924z" stroke="#E54649" stroke-width="2.16667" stroke-linecap="round" stroke-linejoin="round"/>
</g></svg>