<svg viewBox="0 0 26 26" fill="none" xmlns="http://www.w3.org/2000/svg" xmlns:xlink="http://www.w3.org/1999/xlink" x="0" y="0"><g id="ion:cart-outline">
<path id="Vector_37" d="M8.938,21.938c0.448,0 0.812,-0.364 0.812,-0.813c0,-0.449 -0.364,-0.813 -0.812,-0.813c-0.449,0 -0.813,0.364 -0.813,0.813c0,0.449 0.364,0.813 0.813,0.813z" stroke="#2563EB" stroke-width="1.625" stroke-linecap="round" stroke-linejoin="round"/>
<path id="Vector_38" d="M20.312,21.938c0.449,0 0.813,-0.364 0.813,-0.813c0,-0.449 -0.364,-0.813 -0.813,-0.813c-0.448,0 -0.812,0.364 -0.812,0.813c0,0.449 0.364,0.813 0.812,0.813z" stroke="#2563EB" stroke-width="1.625" stroke-linecap="round" stroke-linejoin="round"/>
<path id="Vector_39" d="M2.438,4.062h3.25l2.437,13.813h13" stroke="#2563EB" stroke-width="1.625" stroke-linecap="round" stroke-linejoin="round"/>
<path id="Vector_40" d="M8.125,14.625h12.667c0.094,0 0.185,-0.032 0.258,-0.092c0.072,-0.06 0.122,-0.142 0.141,-0.235l1.462,-7.312c0.012,-0.059 0.01,-0.12 -0.004,-0.178c-0.015,-0.059 -0.042,-0.113 -0.08,-0.159c-0.038,-0.047 -0.086,-0.084 -0.141,-0.11c-0.054,-0.026 -0.113,-0.039 -0.174,-0.039h-15.754" stroke="#2563EB" stroke-width="1.625" stroke-linecap="round" stroke-linejoin="round"/>
</g></svg>