<svg viewBox="0 0 20.5833 19.5" fill="none" xmlns="http://www.w3.org/2000/svg" xmlns:xlink="http://www.w3.org/1999/xlink" x="0" y="0"><g id="Group_3">
<path id="Vector_42" d="M12.9995,5.417c0,-1.437 -0.57,-2.815 -1.586,-3.83c-1.016,-1.016 -2.394,-1.587 -3.83,-1.587c-1.437,0 -2.815,0.571 -3.83,1.587c-1.016,1.015 -1.587,2.393 -1.587,3.83c0,1.436 0.571,2.814 1.587,3.83c1.015,1.016 2.393,1.586 3.83,1.586c1.436,0 2.814,-0.57 3.83,-1.586c1.016,-1.016 1.586,-2.394 1.586,-3.83z" stroke="#D97706" stroke-width="1.625" stroke-linecap="round" stroke-linejoin="round"/>
<path id="Vector_43" d="M-0.0005,18.417c0,-1.28 0.324,-2.538 0.941,-3.659c0.617,-1.121 1.507,-2.068 2.589,-2.752c1.081,-0.684 2.318,-1.083 3.595,-1.16c1.277,-0.078 2.553,0.169 3.709,0.718M17.8745,16.25l-1.083,-0.542v-1.625M20.5835,15.708c0,1.006 -0.4,1.97 -1.111,2.681c-0.711,0.712 -1.675,1.111 -2.681,1.111c-1.005,0 -1.97,-0.399 -2.681,-1.111c-0.711,-0.711 -1.111,-1.675 -1.111,-2.681c0,-1.005 0.4,-1.97 1.111,-2.681c0.711,-0.711 1.676,-1.11 2.681,-1.11c1.006,0 1.97,0.399 2.681,1.11c0.711,0.711 1.111,1.676 1.111,2.681z" stroke="#D97706" stroke-width="1.625" stroke-linecap="round" stroke-linejoin="round"/>
</g></svg>