<svg viewBox="0 0 17.3333 21.6667" fill="none" xmlns="http://www.w3.org/2000/svg" xmlns:xlink="http://www.w3.org/1999/xlink" x="0" y="0"><g id="Group_2">
<path id="Vector_34" d="M5.4165,11.9164h6.5M5.4165,16.2504h3.25M-0.0005,2.1664v17.334c0,0.574 0.229,1.125 0.635,1.532c0.406,0.406 0.958,0.634 1.532,0.634h13c0.575,0 1.126,-0.228 1.532,-0.634c0.407,-0.407 0.635,-0.958 0.635,-1.532v-12.63c0,-0.289 -0.058,-0.574 -0.17,-0.84c-0.112,-0.266 -0.276,-0.507 -0.482,-0.709l-4.81,-4.704c-0.405,-0.396 -0.949,-0.617 -1.515,-0.617h-8.19c-0.574,0 -1.126,0.228 -1.532,0.634c-0.406,0.407 -0.635,0.958 -0.635,1.532z" stroke="#D97706" stroke-width="2.16667" stroke-linecap="round" stroke-linejoin="round"/>
<path id="Vector_35" d="M10.8335,0.0004v4.333c0,0.575 0.228,1.126 0.635,1.532c0.406,0.406 0.957,0.635 1.532,0.635h4.333" stroke="#D97706" stroke-width="2.16667" stroke-linejoin="round"/>
</g></svg>