<svg viewBox="0 0 26 26" fill="none" xmlns="http://www.w3.org/2000/svg" xmlns:xlink="http://www.w3.org/1999/xlink" x="0" y="0"><defs><clipPath id="clip4_165_994">
<rect width="14" height="14" fill="white" transform="translate(6, 5.999900000000025)"/>
</clipPath></defs><g id="Group 97">
<circle id="Ellipse 17_4" cx="13" cy="12.999900000000025" r="13" fill="currentColor" fill-opacity="0.08"/>
<g id="lsicon:work-order-appointment-filled" clip-path="url(#clip4_165_994)">
<path id="Vector_10" d="M9.062,6.8749c-0.116,0 -0.227,0.046 -0.309,0.128c-0.082,0.082 -0.128,0.194 -0.128,0.31v11.375c0,0.116 0.046,0.227 0.128,0.309c0.082,0.082 0.193,0.128 0.309,0.128h2.626v-0.875h-2.188v-10.5h7v4.375h0.875v-4.812c0,-0.116 -0.046,-0.228 -0.128,-0.31c-0.082,-0.082 -0.193,-0.128 -0.309,-0.128z" fill="currentColor"/>
<path id="Vector_11" d="M10.375,10.3749h5.25v-0.875h-5.25zM10.375,12.1249h3.5v-0.875h-3.5z" fill="currentColor"/>
<path id="Vector_12" fill-rule="evenodd" clip-rule="evenodd" d="M15.188,12.9999c-0.813,0 -1.592,0.323 -2.166,0.897c-0.574,0.574 -0.897,1.353 -0.897,2.166c0,0.812 0.323,1.591 0.897,2.165c0.574,0.574 1.353,0.897 2.166,0.897c0.812,0 1.591,-0.323 2.165,-0.897c0.574,-0.574 0.897,-1.353 0.897,-2.165c0,-0.813 -0.323,-1.592 -0.897,-2.166c-0.574,-0.574 -1.353,-0.897 -2.165,-0.897zM14.75,14.3129v1.75c0,0.057 0.011,0.114 0.033,0.167c0.022,0.053 0.054,0.102 0.095,0.142l1.312,1.313l0.62,-0.62l-1.185,-1.184v-1.568z" fill="currentColor"/>
</g>
</g></svg>