<svg viewBox="0 0 26 26" fill="none" xmlns="http://www.w3.org/2000/svg" xmlns:xlink="http://www.w3.org/1999/xlink" x="0" y="0"><g id="Group 96">
<circle id="Ellipse 17_3" cx="13" cy="12.999900000000025" r="13" fill="currentColor" fill-opacity="0.08"/>
<g id="fluent:chat-12-regular">
<path id="Vector_9" d="M10.667,12.4169c0,-0.155 0.061,-0.303 0.17,-0.413c0.11,-0.109 0.258,-0.171 0.413,-0.171h3.5c0.155,0 0.303,0.062 0.412,0.171c0.11,0.11 0.171,0.258 0.171,0.413c0,0.154 -0.061,0.303 -0.171,0.412c-0.109,0.11 -0.257,0.171 -0.412,0.171h-3.5c-0.155,0 -0.303,-0.061 -0.413,-0.171c-0.109,-0.109 -0.17,-0.258 -0.17,-0.412zM11.25,14.1669c-0.155,0 -0.303,0.061 -0.413,0.171c-0.109,0.109 -0.17,0.257 -0.17,0.412c0,0.155 0.061,0.303 0.17,0.413c0.11,0.109 0.258,0.17 0.413,0.17h2.333c0.155,0 0.303,-0.061 0.413,-0.17c0.109,-0.11 0.171,-0.258 0.171,-0.413c0,-0.155 -0.062,-0.303 -0.171,-0.412c-0.11,-0.11 -0.258,-0.171 -0.413,-0.171zM7.167,12.9999c0,-1.279 0.42,-2.522 1.196,-3.539c0.777,-1.016 1.865,-1.749 3.099,-2.087c1.234,-0.337 2.544,-0.259 3.729,0.221c1.185,0.481 2.18,1.337 2.831,2.438c0.65,1.101 0.921,2.386 0.771,3.656c-0.151,1.27 -0.715,2.455 -1.605,3.373c-0.89,0.918 -2.058,1.518 -3.322,1.708c-1.265,0.19 -2.557,-0.041 -3.678,-0.658l-2.268,0.691c-0.101,0.031 -0.209,0.034 -0.311,0.008c-0.103,-0.026 -0.197,-0.079 -0.271,-0.153c-0.075,-0.075 -0.128,-0.169 -0.154,-0.272c-0.025,-0.102 -0.023,-0.21 0.008,-0.311l0.691,-2.271c-0.471,-0.86 -0.717,-1.824 -0.716,-2.804zM13,8.3329c-0.829,0 -1.642,0.221 -2.357,0.639c-0.715,0.418 -1.306,1.02 -1.712,1.742c-0.406,0.722 -0.612,1.539 -0.598,2.367c0.015,0.829 0.25,1.638 0.68,2.346c0.043,0.07 0.071,0.149 0.081,0.23c0.01,0.082 0.003,0.165 -0.021,0.243l-0.447,1.469l1.467,-0.447c0.078,-0.024 0.162,-0.031 0.243,-0.02c0.082,0.01 0.161,0.038 0.231,0.081c0.615,0.376 1.309,0.604 2.027,0.666c0.718,0.063 1.44,-0.042 2.111,-0.305c0.671,-0.264 1.272,-0.679 1.755,-1.213c0.483,-0.535 0.836,-1.174 1.032,-1.868c0.195,-0.693 0.226,-1.423 0.092,-2.131c-0.134,-0.708 -0.43,-1.375 -0.865,-1.95c-0.435,-0.574 -0.997,-1.04 -1.642,-1.361c-0.646,-0.32 -1.357,-0.487 -2.077,-0.488z" fill="currentColor"/>
</g>
</g></svg>