<svg viewBox="0 0 26 26" fill="none" xmlns="http://www.w3.org/2000/svg" xmlns:xlink="http://www.w3.org/1999/xlink" x="0" y="0"><g id="Group 94">
<circle id="Ellipse 17" cx="13" cy="13" r="13" fill="currentColor" fill-opacity="0.08"/>
<g id="material-symbols:warning-outline-rounded">
<path id="Vector_7" d="M7.589,18.25c-0.106,0 -0.204,-0.027 -0.291,-0.08c-0.088,-0.053 -0.156,-0.124 -0.204,-0.212c-0.049,-0.088 -0.076,-0.182 -0.08,-0.284c-0.005,-0.102 0.022,-0.202 0.08,-0.299l5.395,-9.333c0.059,-0.098 0.134,-0.17 0.227,-0.219c0.092,-0.049 0.187,-0.073 0.284,-0.073c0.097,0 0.192,0.024 0.285,0.073c0.092,0.049 0.168,0.121 0.225,0.219l5.396,9.333c0.058,0.097 0.085,0.197 0.081,0.299c-0.005,0.103 -0.032,0.197 -0.081,0.284c-0.049,0.087 -0.117,0.158 -0.204,0.212c-0.087,0.054 -0.184,0.081 -0.292,0.08zM8.596,17.083h8.808l-4.404,-7.583zM13.416,16.333c0.111,-0.112 0.167,-0.251 0.167,-0.416c0,-0.166 -0.056,-0.304 -0.168,-0.416c-0.112,-0.111 -0.25,-0.167 -0.415,-0.168c-0.165,0 -0.303,0.056 -0.415,0.168c-0.112,0.113 -0.168,0.251 -0.168,0.416c0,0.164 0.056,0.303 0.168,0.416c0.112,0.112 0.25,0.168 0.415,0.167c0.165,-0.001 0.303,-0.057 0.416,-0.167zM13.416,14.582c0.111,-0.112 0.167,-0.25 0.167,-0.415v-1.75c0,-0.166 -0.056,-0.304 -0.168,-0.416c-0.112,-0.111 -0.25,-0.167 -0.415,-0.168c-0.165,0 -0.303,0.056 -0.415,0.168c-0.112,0.113 -0.168,0.251 -0.168,0.416v1.75c0,0.165 0.056,0.304 0.168,0.416c0.112,0.112 0.25,0.167 0.415,0.167c0.165,0 0.303,-0.056 0.416,-0.168z" fill="currentColor"/>
</g>
</g></svg>