<svg viewBox="0 0 35 35" fill="none" xmlns="http://www.w3.org/2000/svg" xmlns:xlink="http://www.w3.org/1999/xlink" x="0" y="0"><g id="Group 107">
<rect id="Rectangle 42" x="0" y="0" width="35" height="35" rx="8" fill="#4F46E5" fill-opacity="0.12"/>
<g id="akar-icons:file">
<g id="Group">
<path id="Vector_26" d="M14.75,18.75h4.5M14.75,21.75h2.25M11,12v12c0,0.398 0.158,0.779 0.439,1.061c0.282,0.281 0.663,0.439 1.061,0.439h9c0.398,0 0.779,-0.158 1.061,-0.439c0.281,-0.282 0.439,-0.663 0.439,-1.061v-8.743c0,-0.2 -0.04,-0.398 -0.118,-0.582c-0.077,-0.184 -0.191,-0.351 -0.333,-0.491l-3.33,-3.257c-0.281,-0.274 -0.657,-0.427 -1.049,-0.427h-5.67c-0.398,0 -0.779,0.158 -1.061,0.439c-0.281,0.282 -0.439,0.663 -0.439,1.061z" stroke="#4F46E5" stroke-width="1.5" stroke-linecap="round" stroke-linejoin="round"/>
<path id="Vector_27" d="M18.5,10.5v3c0,0.398 0.158,0.779 0.439,1.061c0.282,0.281 0.663,0.439 1.061,0.439h3" stroke="#4F46E5" stroke-width="1.5" stroke-linejoin="round"/>
</g>
</g>
</g></svg>