<svg viewBox="0 0 35 35" fill="none" xmlns="http://www.w3.org/2000/svg" xmlns:xlink="http://www.w3.org/1999/xlink" x="0" y="0"><g id="Group 107_2">
<rect id="Rectangle 42_2" x="0" y="0" width="35" height="35" rx="8" fill="#F59E0B" fill-opacity="0.12"/>
<g id="uil:setting">
<path id="Vector_28" d="M22.925,18.495c-0.12,-0.137 -0.186,-0.313 -0.186,-0.495c0,-0.182 0.066,-0.358 0.186,-0.495l0.96,-1.08c0.106,-0.118 0.172,-0.266 0.188,-0.424c0.016,-0.158 -0.018,-0.316 -0.098,-0.453l-1.5,-2.595c-0.079,-0.137 -0.199,-0.246 -0.343,-0.31c-0.144,-0.065 -0.305,-0.083 -0.459,-0.05l-1.41,0.285c-0.18,0.037 -0.367,0.007 -0.525,-0.084c-0.159,-0.092 -0.279,-0.238 -0.338,-0.411l-0.457,-1.373c-0.051,-0.149 -0.147,-0.278 -0.274,-0.37c-0.128,-0.091 -0.282,-0.14 -0.439,-0.14h-3c-0.163,-0.008 -0.325,0.037 -0.461,0.129c-0.135,0.092 -0.237,0.226 -0.289,0.381l-0.42,1.373c-0.058,0.173 -0.178,0.319 -0.337,0.411c-0.159,0.091 -0.346,0.121 -0.525,0.084l-1.448,-0.285c-0.146,-0.021 -0.296,0.002 -0.429,0.066c-0.134,0.064 -0.245,0.166 -0.321,0.294l-1.5,2.595c-0.081,0.135 -0.118,0.293 -0.105,0.45c0.014,0.158 0.077,0.307 0.18,0.427l0.953,1.08c0.12,0.137 0.186,0.313 0.186,0.495c0,0.182 -0.066,0.358 -0.186,0.495l-0.953,1.08c-0.103,0.12 -0.166,0.269 -0.18,0.427c-0.013,0.157 0.024,0.315 0.105,0.451l1.5,2.595c0.079,0.136 0.199,0.245 0.343,0.31c0.144,0.064 0.305,0.082 0.46,0.05l1.41,-0.285c0.179,-0.038 0.366,-0.008 0.525,0.084c0.159,0.091 0.279,0.237 0.337,0.411l0.458,1.372c0.052,0.155 0.153,0.289 0.289,0.381c0.135,0.092 0.297,0.138 0.461,0.129h3c0.157,0 0.31,-0.049 0.438,-0.14c0.128,-0.092 0.224,-0.221 0.274,-0.37l0.458,-1.372c0.058,-0.174 0.178,-0.32 0.337,-0.411c0.159,-0.092 0.346,-0.122 0.525,-0.084l1.41,0.285c0.155,0.032 0.316,0.014 0.46,-0.05c0.144,-0.065 0.264,-0.174 0.343,-0.31l1.5,-2.595c0.079,-0.137 0.113,-0.296 0.097,-0.454c-0.016,-0.157 -0.082,-0.306 -0.187,-0.424zM21.808,19.5l0.6,0.675l-0.96,1.665l-0.885,-0.18c-0.54,-0.11 -1.102,-0.019 -1.579,0.258c-0.477,0.276 -0.836,0.718 -1.009,1.242l-0.285,0.84h-1.92l-0.27,-0.855c-0.172,-0.524 -0.531,-0.966 -1.008,-1.242c-0.477,-0.277 -1.039,-0.368 -1.579,-0.258l-0.885,0.18l-0.975,-1.657l0.6,-0.675c0.369,-0.413 0.573,-0.947 0.573,-1.5c0,-0.554 -0.204,-1.088 -0.573,-1.5l-0.6,-0.675l0.96,-1.65l0.885,0.18c0.54,0.11 1.102,0.018 1.579,-0.258c0.477,-0.277 0.836,-0.719 1.008,-1.242l0.285,-0.848h1.92l0.285,0.855c0.173,0.524 0.532,0.966 1.009,1.242c0.477,0.277 1.039,0.368 1.579,0.258l0.885,-0.18l0.96,1.665l-0.6,0.675c-0.365,0.412 -0.567,0.943 -0.567,1.493c0,0.55 0.202,1.08 0.567,1.492zM16.73,15c-0.593,0 -1.173,0.176 -1.667,0.506c-0.493,0.329 -0.877,0.798 -1.104,1.346c-0.228,0.548 -0.287,1.151 -0.171,1.733c0.116,0.582 0.401,1.117 0.821,1.536c0.419,0.42 0.954,0.706 1.536,0.821c0.582,0.116 1.185,0.057 1.733,-0.17c0.548,-0.227 1.017,-0.612 1.347,-1.105c0.329,-0.494 0.505,-1.074 0.505,-1.667c0,-0.796 -0.316,-1.559 -0.879,-2.121c-0.562,-0.563 -1.325,-0.879 -2.121,-0.879zM16.73,19.5c-0.297,0 -0.587,-0.088 -0.833,-0.253c-0.247,-0.165 -0.439,-0.399 -0.553,-0.673c-0.113,-0.274 -0.143,-0.576 -0.085,-0.867c0.058,-0.291 0.201,-0.558 0.411,-0.768c0.209,-0.209 0.477,-0.352 0.768,-0.41c0.291,-0.058 0.592,-0.028 0.866,0.085c0.274,0.114 0.509,0.306 0.673,0.553c0.165,0.246 0.253,0.536 0.253,0.833c0,0.398 -0.158,0.779 -0.439,1.061c-0.281,0.281 -0.663,0.439 -1.061,0.439z" fill="#F59E0B"/>
</g>
</g></svg>