<svg viewBox="0 0 35 35" fill="none" xmlns="http://www.w3.org/2000/svg" xmlns:xlink="http://www.w3.org/1999/xlink" x="0" y="0"><g id="Group 107_3">
<rect id="Rectangle 42_3" x="0" y="0" width="35" height="35" rx="8" fill="#E54649" fill-opacity="0.12"/>
<g id="material-symbols:pending-actions">
<path id="Vector_30" d="M18.097,24.403c-0.731,-0.731 -1.097,-1.615 -1.097,-2.653c0,-1.038 0.366,-1.922 1.097,-2.653c0.732,-0.731 1.616,-1.097 2.653,-1.097c1.037,0 1.922,0.365 2.653,1.097c0.732,0.732 1.098,1.617 1.097,2.653c-0.001,1.036 -0.367,1.921 -1.097,2.653c-0.731,0.733 -1.615,1.099 -2.653,1.097c-1.038,-0.002 -1.922,-0.366 -2.653,-1.097zM22.006,23.531l0.525,-0.525l-1.406,-1.406v-2.1h-0.75v2.4zM11.75,24.75c-0.413,0 -0.765,-0.147 -1.059,-0.44c-0.293,-0.294 -0.441,-0.647 -0.441,-1.06v-10.5c0,-0.412 0.147,-0.766 0.441,-1.059c0.294,-0.293 0.647,-0.441 1.059,-0.441h3.131c0.138,-0.438 0.406,-0.797 0.807,-1.078c0.4,-0.281 0.837,-0.422 1.312,-0.422c0.5,0 0.947,0.141 1.341,0.422c0.394,0.282 0.66,0.641 0.797,1.078h3.112c0.413,0 0.766,0.147 1.06,0.441c0.294,0.294 0.44,0.647 0.44,1.059v4.688c-0.225,-0.163 -0.463,-0.301 -0.713,-0.413c-0.25,-0.113 -0.512,-0.213 -0.787,-0.3v-3.975h-1.5v2.25h-7.5v-2.25h-1.5v10.5h3.975c0.087,0.275 0.187,0.537 0.3,0.787c0.112,0.25 0.25,0.488 0.413,0.713zM17.535,12.534c0.143,-0.144 0.215,-0.321 0.215,-0.534c0,-0.213 -0.072,-0.39 -0.216,-0.534c-0.144,-0.143 -0.322,-0.216 -0.534,-0.216c-0.212,0 -0.39,0.072 -0.534,0.216c-0.144,0.145 -0.216,0.323 -0.216,0.534c0,0.211 0.072,0.39 0.216,0.535c0.144,0.145 0.322,0.216 0.534,0.215c0.212,-0.001 0.39,-0.074 0.535,-0.216z" fill="#E54649"/>
</g>
</g></svg>